<svg width="168" height="24" viewBox="0 0 168 24" fill="none" xmlns="http://www.w3.org/2000/svg">
<path d="M11.0489 2.92705C11.3483 2.00574 12.6517 2.00574 12.9511 2.92705L14.4697 7.60081C14.6035 8.01284 14.9875 8.2918 15.4207 8.2918H20.335C21.3037 8.2918 21.7065 9.53141 20.9228 10.1008L16.947 12.9894C16.5966 13.244 16.4499 13.6954 16.5838 14.1074L18.1024 18.7812C18.4017 19.7025 17.3472 20.4686 16.5635 19.8992L12.5878 17.0106C12.2373 16.756 11.7627 16.756 11.4122 17.0106L7.43648 19.8992C6.65276 20.4686 5.59828 19.7025 5.89763 18.7812L7.41623 14.1074C7.55011 13.6954 7.40345 13.244 7.05296 12.9894L3.07722 10.1008C2.29351 9.53141 2.69628 8.2918 3.66501 8.2918H8.57929C9.01252 8.2918 9.39647 8.01284 9.53035 7.60081L11.0489 2.92705Z" fill="url(#paint0_linear_69_44)"/>
<path d="M47.0489 2.92705C47.3483 2.00574 48.6517 2.00574 48.9511 2.92705L50.4697 7.60081C50.6035 8.01284 50.9875 8.2918 51.4207 8.2918H56.335C57.3037 8.2918 57.7065 9.53141 56.9228 10.1008L52.947 12.9894C52.5966 13.244 52.4499 13.6954 52.5838 14.1074L54.1024 18.7812C54.4017 19.7025 53.3472 20.4686 52.5635 19.8992L48.5878 17.0106C48.2373 16.756 47.7627 16.756 47.4122 17.0106L43.4365 19.8992C42.6528 20.4686 41.5983 19.7025 41.8976 18.7812L43.4162 14.1074C43.5501 13.6954 43.4034 13.244 43.053 12.9894L39.0772 10.1008C38.2935 9.53141 38.6963 8.2918 39.665 8.2918H44.5793C45.0125 8.2918 45.3965 8.01284 45.5303 7.60081L47.0489 2.92705Z" fill="url(#paint1_linear_69_44)"/>
<path d="M83.0489 2.92705C83.3483 2.00574 84.6517 2.00574 84.9511 2.92705L86.4697 7.60081C86.6035 8.01284 86.9875 8.2918 87.4207 8.2918H92.335C93.3037 8.2918 93.7065 9.53141 92.9228 10.1008L88.947 12.9894C88.5966 13.244 88.4499 13.6954 88.5838 14.1074L90.1024 18.7812C90.4017 19.7025 89.3472 20.4686 88.5635 19.8992L84.5878 17.0106C84.2373 16.756 83.7627 16.756 83.4122 17.0106L79.4365 19.8992C78.6528 20.4686 77.5983 19.7025 77.8976 18.7812L79.4162 14.1074C79.5501 13.6954 79.4034 13.244 79.053 12.9894L75.0772 10.1008C74.2935 9.53141 74.6963 8.2918 75.665 8.2918H80.5793C81.0125 8.2918 81.3965 8.01284 81.5303 7.60081L83.0489 2.92705Z" fill="#FBE601"/>
<path d="M119.049 2.92705C119.348 2.00574 120.652 2.00574 120.951 2.92705L122.47 7.60081C122.604 8.01284 122.987 8.2918 123.421 8.2918H128.335C129.304 8.2918 129.706 9.53141 128.923 10.1008L124.947 12.9894C124.597 13.244 124.45 13.6954 124.584 14.1074L126.102 18.7812C126.402 19.7025 125.347 20.4686 124.564 19.8992L120.588 17.0106C120.237 16.756 119.763 16.756 119.412 17.0106L115.436 19.8992C114.653 20.4686 113.598 19.7025 113.898 18.7812L115.416 14.1074C115.55 13.6954 115.403 13.244 115.053 12.9894L111.077 10.1008C110.294 9.53141 110.696 8.2918 111.665 8.2918H116.579C117.013 8.2918 117.396 8.01284 117.53 7.60081L119.049 2.92705Z" fill="#FBE601"/>
<path d="M155.049 2.92705C155.348 2.00574 156.652 2.00574 156.951 2.92705L158.47 7.60081C158.604 8.01284 158.987 8.2918 159.421 8.2918H164.335C165.304 8.2918 165.706 9.53141 164.923 10.1008L160.947 12.9894C160.597 13.244 160.45 13.6954 160.584 14.1074L162.102 18.7812C162.402 19.7025 161.347 20.4686 160.564 19.8992L156.588 17.0106C156.237 16.756 155.763 16.756 155.412 17.0106L151.436 19.8992C150.653 20.4686 149.598 19.7025 149.898 18.7812L151.416 14.1074C151.55 13.6954 151.403 13.244 151.053 12.9894L147.077 10.1008C146.294 9.53141 146.696 8.2918 147.665 8.2918H152.579C153.013 8.2918 153.396 8.01284 153.53 7.60081L155.049 2.92705Z" fill="#D9D9D9"/>
<defs>
<linearGradient id="paint0_linear_69_44" x1="0" y1="0" x2="24" y2="24" gradientUnits="userSpaceOnUse">
<stop offset="0.11" stop-color="#FBE601"/>
<stop offset="0.43" stop-color="#F2E23E"/>
<stop offset="0.765" stop-color="#958901"/>
</linearGradient>
<linearGradient id="paint1_linear_69_44" x1="36" y1="0" x2="60" y2="24" gradientUnits="userSpaceOnUse">
<stop offset="0.11" stop-color="#FBE601"/>
<stop offset="0.43" stop-color="#F2E23E"/>
<stop offset="0.765" stop-color="#958901"/>
</linearGradient>
</defs>
</svg>
