<svg width="777" height="528" viewBox="0 0 777 528" fill="none" xmlns="http://www.w3.org/2000/svg">
<path fill-rule="evenodd" clip-rule="evenodd" d="M547.856 57.6155C568.864 16.5988 614.501 -5.541 659.72 3.34682L727.824 16.7327L728.094 15.359L659.99 1.97311C614.158 -7.03517 567.903 15.4046 546.61 56.9772L533.502 82.5688C512.757 123.07 467.953 145.227 423.175 137.128L291.93 113.389C244.448 104.801 197.245 129.776 177.633 173.863L163.705 205.174C153.833 227.365 136.459 245.368 114.633 256.021L98.1147 264.084C53.7898 285.718 30.5754 335.355 42.3852 383.243L49.6444 412.679C60.3802 456.212 41.8071 501.7 3.66945 525.277L0 527.546H2.66232L4.40563 526.468C43.0601 502.571 61.885 456.466 51.0037 412.343L43.7445 382.908C32.0926 335.66 54.9966 286.687 98.7288 265.342L115.247 257.279C137.369 246.482 154.979 228.235 164.984 205.743L178.912 174.432C198.262 130.934 244.833 106.294 291.681 114.767L422.926 138.505C468.311 146.714 513.722 124.257 534.748 83.2071L547.856 57.6155Z" fill="#D9D9D9"/>
<path fill-rule="evenodd" clip-rule="evenodd" d="M571.856 83.6155C592.864 42.5988 638.501 20.459 683.72 29.3468L751.824 42.7327L752.094 41.359L683.99 27.9731C638.158 18.9648 591.903 41.4046 570.61 82.9772L557.502 108.569C536.757 149.07 491.953 171.227 447.175 163.128L315.93 139.389C268.448 130.801 221.245 155.776 201.633 199.863L187.705 231.174C177.833 253.365 160.459 271.368 138.633 282.021L122.115 290.084C77.7898 311.718 54.5754 361.355 66.3852 409.243L73.6444 438.679C81.4485 470.324 73.7653 503.002 54.3379 527.546H56.116C75.3048 502.77 82.8217 470.045 75.0037 438.343L67.7445 408.908C56.0926 361.66 78.9966 312.687 122.729 291.342L139.247 283.279C161.369 272.482 178.979 254.235 188.984 231.743L202.912 200.432C222.262 156.934 268.833 132.294 315.681 140.767L446.926 164.505C492.311 172.714 537.722 150.257 558.748 109.207L571.856 83.6155Z" fill="#D9D9D9"/>
<path fill-rule="evenodd" clip-rule="evenodd" d="M595.856 109.615C616.864 68.5988 662.501 46.459 707.72 55.3468L775.824 68.7327L776.094 67.359L707.99 53.9731C662.158 44.9648 615.903 67.4046 594.61 108.977L581.502 134.569C560.757 175.07 515.953 197.227 471.175 189.128L339.93 165.389C292.448 156.801 245.245 181.776 225.633 225.863L211.705 257.174C201.833 279.365 184.459 297.368 162.633 308.021L146.115 316.084C101.79 337.718 78.5754 387.355 90.3853 435.243L97.6444 464.679C102.93 486.11 101.112 508.015 93.3531 527.546H94.858C102.549 507.881 104.314 485.876 99.0037 464.343L91.7445 434.908C80.0926 387.66 102.997 338.687 146.729 317.342L163.247 309.279C185.369 298.482 202.979 280.235 212.984 257.743L226.912 226.432C246.262 182.934 292.833 158.294 339.681 166.767L470.926 190.505C516.311 198.714 561.722 176.257 582.748 135.207L595.856 109.615Z" fill="#D9D9D9"/>
</svg>
