<svg width="1453" height="434" viewBox="0 0 1453 434" fill="none" xmlns="http://www.w3.org/2000/svg">
<g clip-path="url(#clip0_613_10)">
<path d="M-48.9029 283.632L214.466 305.578C263.398 309.656 308.515 278.955 322.68 231.941L343.928 161.423C359.129 110.972 409.659 79.8611 461.55 89.0031L537.41 102.368C561.416 106.597 586.144 102.26 607.278 90.1141L688.456 43.4571C727.228 21.1741 775.904 26.1701 809.34 55.8651L1030.59 252.361C1062.32 280.544 1108 286.616 1145.99 267.705L1242.11 219.861C1280.55 200.727 1326.8 207.186 1358.53 236.119L1470.59 338.308" stroke="#D9D9D9" stroke-width="1.4" stroke-linejoin="round"/>
<path d="M-35.357 331.535L228.012 353.481C276.943 357.558 322.06 326.857 336.226 279.843L357.474 209.325C372.675 158.874 423.204 127.764 475.096 136.906L550.956 150.27C574.961 154.5 599.69 150.162 620.823 138.016L702.002 91.3598C740.773 69.0758 789.449 74.0729 822.885 103.768L1044.13 300.263C1075.87 328.446 1121.54 334.519 1159.54 315.607L1255.66 267.763C1294.1 248.63 1340.35 255.088 1372.08 284.022L1484.14 386.211" stroke="#D9D9D9" stroke-width="1.4" stroke-linejoin="round"/>
<path d="M-21.811 379.437L241.558 401.383C290.489 405.461 335.606 374.76 349.772 327.746L371.02 257.228C386.221 206.777 436.75 175.666 488.642 184.808L564.502 198.173C588.507 202.402 613.236 198.065 634.369 185.919L715.548 139.262C754.319 116.979 802.995 121.975 836.431 151.67L1057.68 348.166C1089.41 376.348 1135.09 382.421 1173.08 363.51L1269.2 315.666C1307.65 296.532 1353.89 302.991 1385.62 331.924L1497.68 434.113" stroke="#D9D9D9" stroke-width="1.4" stroke-linejoin="round"/>
</g>
<defs>
<clipPath id="clip0_613_10">
<rect width="1453" height="434" fill="white"/>
</clipPath>
</defs>
</svg>
