<svg width="19" height="18" viewBox="0 0 19 18" fill="none" xmlns="http://www.w3.org/2000/svg">
<path d="M17 10.2C17.6627 10.2 18.2 9.66274 18.2 9C18.2 8.33726 17.6627 7.8 17 7.8V10.2ZM1.15147 8.15147C0.682842 8.6201 0.682842 9.3799 1.15147 9.84853L8.78822 17.4853C9.25685 17.9539 10.0167 17.9539 10.4853 17.4853C10.9539 17.0167 10.9539 16.2569 10.4853 15.7882L3.69706 9L10.4853 2.21177C10.9539 1.74315 10.9539 0.983348 10.4853 0.514718C10.0167 0.0460892 9.25685 0.0460892 8.78822 0.514718L1.15147 8.15147ZM17 7.8L2 7.8V10.2L17 10.2V7.8Z" fill="white"/>
</svg>
