<svg width="1548" height="407" viewBox="0 0 1548 407" fill="none" xmlns="http://www.w3.org/2000/svg">
<path d="M0.097168 255.632L263.466 277.578C312.398 281.656 357.515 250.955 371.681 203.941L392.928 133.423C408.129 82.9721 458.659 51.8611 510.551 61.0031L586.41 74.3681C610.416 78.5971 635.144 74.2601 656.278 62.1141L737.456 15.4571C776.228 -6.82592 824.904 -1.82993 858.34 27.8651L1079.59 224.361C1111.32 252.543 1157 258.616 1194.99 239.705L1291.11 191.861C1329.55 172.727 1375.8 179.186 1407.53 208.119L1519.59 310.308" stroke="#D9D9D9" stroke-width="1.4" stroke-linejoin="round"/>
<path d="M13.6431 303.535L277.012 325.481C325.944 329.558 371.061 298.857 385.226 251.843L406.474 181.325C421.675 130.874 472.204 99.7642 524.096 108.906L599.956 122.27C623.961 126.499 648.69 122.162 669.823 110.016L751.002 63.3601C789.773 41.0761 838.449 46.0722 871.886 75.7682L1093.13 272.263C1124.87 300.446 1170.54 306.519 1208.54 287.607L1304.66 239.763C1343.1 220.629 1389.35 227.088 1421.08 256.022L1533.14 358.211" stroke="#D9D9D9" stroke-width="1.4" stroke-linejoin="round"/>
<path d="M27.189 351.437L290.558 373.383C339.489 377.461 384.606 346.76 398.772 299.746L420.02 229.228C435.221 178.777 485.75 147.666 537.642 156.808L613.502 170.173C637.507 174.402 662.236 170.065 683.369 157.919L764.548 111.262C803.319 88.9793 851.995 93.9752 885.431 123.67L1106.68 320.166C1138.41 348.348 1184.09 354.421 1222.08 335.51L1318.2 287.666C1356.65 268.532 1402.89 274.991 1434.62 303.924L1546.68 406.113" stroke="#D9D9D9" stroke-width="1.4" stroke-linejoin="round"/>
</svg>
