<svg width="1745" height="1583" viewBox="0 0 1745 1583" fill="none" xmlns="http://www.w3.org/2000/svg">
<path d="M89.0974 731.632L352.466 753.578C401.398 757.656 446.515 726.955 460.681 679.941L481.928 609.423C497.129 558.972 547.659 527.861 599.551 537.003L675.41 550.368C699.416 554.597 724.144 550.26 745.278 538.114L826.456 491.457C865.228 469.174 913.904 474.17 947.34 503.865L1168.59 700.361C1200.32 728.543 1246 734.616 1283.99 715.705L1380.11 667.861C1418.55 648.727 1464.8 655.186 1496.53 684.119L1608.59 786.308" stroke="#D9D9D9" stroke-width="1.4" stroke-linejoin="round"/>
<path d="M102.643 779.535L366.012 801.481C414.944 805.558 460.061 774.857 474.226 727.843L495.474 657.325C510.675 606.874 561.204 575.764 613.096 584.906L688.956 598.27C712.961 602.499 737.69 598.162 758.823 586.016L840.002 539.36C878.773 517.076 927.449 522.072 960.886 551.768L1182.13 748.263C1213.87 776.446 1259.54 782.519 1297.54 763.607L1393.66 715.763C1432.1 696.629 1478.35 703.088 1510.08 732.022L1622.14 834.211" stroke="#D9D9D9" stroke-width="1.4" stroke-linejoin="round"/>
<path d="M116.189 827.437L379.558 849.383C428.489 853.461 473.606 822.76 487.772 775.746L509.02 705.228C524.221 654.777 574.75 623.666 626.642 632.808L702.502 646.173C726.507 650.402 751.236 646.065 772.369 633.919L853.548 587.262C892.319 564.979 940.995 569.975 974.431 599.67L1195.68 796.166C1227.41 824.348 1273.09 830.421 1311.08 811.51L1407.2 763.666C1445.65 744.532 1491.89 750.991 1523.62 779.924L1635.68 882.113" stroke="#D9D9D9" stroke-width="1.4" stroke-linejoin="round"/>
</svg>
