<svg width="19" height="18" viewBox="0 0 19 18" fill="none" xmlns="http://www.w3.org/2000/svg">
<path d="M2 7.8C1.33726 7.8 0.8 8.33726 0.8 9C0.8 9.66274 1.33726 10.2 2 10.2L2 7.8ZM17.8485 9.84853C18.3172 9.3799 18.3172 8.6201 17.8485 8.15147L10.2118 0.514718C9.74315 0.0460892 8.98335 0.0460892 8.51472 0.514718C8.04609 0.983348 8.04609 1.74315 8.51472 2.21177L15.3029 9L8.51472 15.7882C8.04609 16.2569 8.04609 17.0167 8.51472 17.4853C8.98335 17.9539 9.74315 17.9539 10.2118 17.4853L17.8485 9.84853ZM2 10.2L17 10.2V7.8L2 7.8L2 10.2Z" fill="white"/>
</svg>
